HIERARCHY
ROOT root
{
	OFFSET 0.000000 0.000000 0.000000
	CHANNELS 6 Xposition Yposition Zposition Zrotation Yrotation Xrotation
	JOINT lhip
	{
		OFFSET 0.058581 -0.082280 -0.017664
		CHANNELS 3 Zrotation Yrotation Xrotation
		JOINT lknee
		{
			OFFSET 0.043451 -0.386469 0.008037
			CHANNELS 3 Zrotation Yrotation Xrotation
			JOINT lankle
			{
				OFFSET -0.014790 -0.426874 -0.037428
				CHANNELS 3 Zrotation Yrotation Xrotation
				JOINT ltoe
				{
					OFFSET 0.041054 -0.060286 0.122042
					CHANNELS 3 Zrotation Yrotation Xrotation
					End Site
					{
						OFFSET 0.000000 0.000000 0.000000
					}
				}
			}
		}
	}
	JOINT rhip
	{
		OFFSET -0.060310 -0.090513 -0.013543
		CHANNELS 3 Zrotation Yrotation Xrotation
		JOINT rknee
		{
			OFFSET -0.043257 -0.383688 -0.004843
			CHANNELS 3 Zrotation Yrotation Xrotation
			JOINT rankle
			{
				OFFSET 0.019056 -0.420046 -0.034562
				CHANNELS 3 Zrotation Yrotation Xrotation
				JOINT rtoe
				{
					OFFSET -0.034840 -0.062106 0.130323
					CHANNELS 3 Zrotation Yrotation Xrotation
					End Site
					{
						OFFSET 0.000000 0.000000 0.000000
					}
				}
			}
		}
	}
	JOINT lowerback
	{
		OFFSET 0.004439 0.124404 -0.038385
		CHANNELS 3 Zrotation Yrotation Xrotation
		JOINT upperback
		{
			OFFSET 0.004488 0.137956 0.026820
			CHANNELS 3 Zrotation Yrotation Xrotation
			JOINT chest
			{
				OFFSET -0.002265 0.056032 0.002855
				CHANNELS 3 Zrotation Yrotation Xrotation
				JOINT lowerneck
				{
					OFFSET -0.013390 0.211636 -0.033468
					CHANNELS 3 Zrotation Yrotation Xrotation
					JOINT upperneck
					{
						OFFSET 0.010113 0.088937 0.050410
						CHANNELS 3 Zrotation Yrotation Xrotation
						End Site
						{
							OFFSET 0.000000 0.000000 0.000000
						}
					}
				}
				JOINT lclavicle
				{
					OFFSET 0.071702 0.114000 -0.018898
					CHANNELS 3 Zrotation Yrotation Xrotation
					JOINT lshoulder
					{
						OFFSET 0.122921 0.045205 -0.019046
						CHANNELS 3 Zrotation Yrotation Xrotation
						JOINT lelbow
						{
							OFFSET 0.255332 -0.015649 -0.022946
							CHANNELS 3 Zrotation Yrotation Xrotation
							JOINT lwrist
							{
								OFFSET 0.265709 0.012698 -0.007375
								CHANNELS 3 Zrotation Yrotation Xrotation
								End Site
								{
									OFFSET 0.000000 0.000000 0.000000
								}
							}
						}
					}
				}
				JOINT rclavicle
				{
					OFFSET -0.082954 0.112472 -0.023707
					CHANNELS 3 Zrotation Yrotation Xrotation
					JOINT rshoulder
					{
						OFFSET -0.113228 0.046853 -0.008472
						CHANNELS 3 Zrotation Yrotation Xrotation
						JOINT relbow
						{
							OFFSET -0.260127 -0.014369 -0.031269
							CHANNELS 3 Zrotation Yrotation Xrotation
							JOINT rwrist
							{
								OFFSET -0.269108 0.006794 -0.006027
								CHANNELS 3 Zrotation Yrotation Xrotation
								End Site
								{
									OFFSET 0.000000 0.000000 0.000000
								}
							}
						}
					}
				}
			}
		}
	}
}
MOTION
Frames: 13
Frame Time: 0.033333
0.485946 0.119039 0.977750 -164.590716 -5.582003 96.723270 -7.072679 -15.949119 -10.177750 -9.153467 -15.767383 18.156605 8.800939 17.005749 -20.551571 0.000000 -0.000000 0.000000 -13.060596 -14.939514 -17.528416 13.833267 6.648324 56.313440 10.533954 -4.079912 7.381277 0.000000 -0.000000 0.000000 -6.157008 -4.498490 -28.724080 6.240205 -20.050815 8.618455 -0.673341 -5.164443 4.765019 2.296747 19.686439 2.494970 -3.467484 -1.676618 10.633518 3.162177 -12.541069 -5.401460 15.408884 -15.798633 -18.181329 15.634109 -41.332967 -19.043892 -2.916476 -9.833582 7.073347 20.724943 2.235165 -0.581732 41.408988 10.662101 21.191964 -11.928888 43.199390 4.999638 1.313487 4.222251 -12.542905 
0.490142 0.072555 0.989432 172.991653 -3.680176 84.943488 -7.313147 -2.642168 4.468947 -8.333128 -12.692702 8.816351 5.683985 23.806370 -18.882356 0.000000 -0.000000 0.000000 -10.487460 6.903640 -22.474899 13.437082 3.823178 68.014611 10.505580 -11.485984 5.838700 0.000000 -0.000000 0.000000 -4.843184 -4.618717 7.989131 10.153807 -3.643333 -7.262071 4.085013 -0.095113 4.119808 1.190727 22.145228 -0.352287 -5.551463 0.938604 9.081416 4.652080 -14.478651 -9.241407 16.152635 -16.591198 -16.089761 14.514881 -34.378885 -23.683726 -3.003344 -8.611505 4.047050 20.474073 9.240261 -5.001668 37.373798 8.309796 22.081828 -15.776158 42.900076 -7.115406 -0.816365 4.972199 -6.999251 
0.486612 0.070912 0.995119 174.029295 -2.499659 86.058967 -6.473073 -1.816588 4.071194 -7.042221 -13.943292 7.111052 3.971930 22.443954 -18.764116 0.000000 -0.000000 0.000000 -9.918414 4.821755 -28.074890 9.805093 -1.040740 68.463628 9.024509 -13.005306 0.705169 0.000000 -0.000000 0.000000 -4.516501 -6.261290 8.491241 10.819626 -6.189927 -7.246083 4.891554 -1.350799 3.329481 0.807191 24.628530 0.537847 -6.252459 2.173160 8.187611 5.603607 -16.522451 -8.765064 17.940021 -16.650422 -17.482510 10.185932 -29.851433 -23.745449 -5.793768 -8.847368 1.239347 21.206184 9.877938 -4.732307 34.187345 9.690025 20.463546 -15.980919 44.497737 -9.418368 -2.612310 5.312421 -8.403005 
0.484197 0.071303 1.001486 174.239167 -1.117583 86.846004 -5.183696 -0.416898 4.421473 -5.885012 -14.760865 4.958521 2.592739 20.768541 -18.930840 0.000000 -0.000000 0.000000 -9.007149 4.056441 -31.006629 9.960704 -3.384191 63.739989 10.251611 -7.913084 -2.822190 0.000000 -0.000000 0.000000 -3.847653 -7.147580 9.103651 11.766192 -8.178289 -6.532576 5.658693 -2.150278 2.217752 0.252181 27.896856 1.432010 -7.216034 2.599853 6.515842 6.907096 -18.684239 -9.127577 17.523640 -17.330209 -18.384912 7.702583 -24.645516 -24.865272 -6.907256 -9.454897 0.939761 21.206516 10.021215 -5.088908 32.241900 10.354631 18.596300 -16.282896 46.241143 -9.756958 -4.833957 5.914570 -10.049927 
0.481997 0.074233 1.006417 174.469080 -0.118584 87.160844 -4.579940 -0.260849 5.541062 -4.374827 -14.489611 2.726654 1.247932 19.614492 -19.068335 0.000000 -0.000000 0.000000 -7.861274 3.786209 -31.357283 8.955702 -5.243573 55.446431 11.294297 -7.745499 -5.281414 0.000000 -0.000000 0.000000 -3.187697 -7.348963 10.061209 12.341835 -9.699586 -6.061960 6.090172 -3.109681 1.382334 -0.348795 28.991469 1.289766 -7.330149 3.294998 5.116563 7.241785 -20.405754 -9.259511 18.019072 -19.352546 -21.074338 6.797173 -19.315810 -30.143476 -5.660527 -10.675303 -1.074667 21.159558 9.518437 -6.071410 31.091737 10.352953 18.438605 -18.051366 48.344329 -11.727800 -6.310372 6.581565 -10.172936 
0.480469 0.079418 1.008799 175.166931 0.527728 87.589017 -4.207497 -0.135974 6.372471 -3.178242 -14.203145 1.161374 0.110611 18.148727 -19.361405 0.000000 -0.000000 0.000000 -6.751048 2.730151 -30.148972 7.071413 -7.379604 46.109198 12.939593 -9.111472 -4.982847 0.000000 -0.000000 0.000000 -2.563177 -7.481123 10.449670 12.384952 -11.372252 -5.839351 6.319688 -4.036622 0.676815 -1.219414 29.124244 0.985504 -6.594631 4.977308 3.871266 7.016347 -22.177963 -9.286545 18.743504 -21.619011 -24.828170 7.475868 -15.971230 -36.253865 -2.396115 -11.319452 -5.583066 20.846347 8.904238 -6.489701 31.229656 9.652806 18.655315 -20.894169 50.483290 -14.373892 -7.899368 6.466649 -11.273691 
0.480486 0.087119 1.008585 176.072725 0.902899 88.211548 -3.605100 0.605076 6.677455 -2.807710 -14.017335 0.508786 -0.635471 15.961314 -20.033312 0.000000 -0.000000 0.000000 -5.588933 1.429560 -27.777979 5.710385 -9.106039 37.121753 15.117920 -7.642407 -1.641476 0.000000 -0.000000 0.000000 -2.063875 -7.387699 10.169598 12.297700 -13.190481 -5.718371 6.338752 -4.940948 -0.024249 -1.791578 29.533381 1.139941 -5.766608 5.940520 3.267841 7.056949 -24.164981 -9.482745 19.231660 -23.824219 -27.916754 8.034579 -13.849476 -40.071714 -1.580443 -12.832371 -8.540281 20.124340 8.191320 -7.127875 32.339833 8.412687 18.939641 -22.880468 52.350221 -15.718336 -9.330625 6.203521 -13.859901 
0.481630 0.097187 1.005945 176.811290 0.819262 88.841461 -3.276090 0.516997 6.574632 -3.206268 -13.843319 0.827907 -0.453351 14.934031 -20.611760 0.000000 -0.000000 0.000000 -4.107653 0.804566 -24.879360 4.869715 -9.018842 30.191729 14.021223 -8.377182 -0.017873 0.000000 -0.000000 0.000000 -2.011558 -7.288907 9.201125 12.023616 -14.963591 -5.472540 6.220186 -5.812045 -0.355176 -2.867564 29.595189 0.891068 -4.843894 7.472393 3.028926 7.161172 -25.874233 -9.552766 19.261705 -25.739015 -29.458467 8.111556 -14.134350 -42.289913 0.506568 -13.587113 -12.309523 19.259560 7.683946 -7.126837 34.090238 7.493435 19.702430 -25.126101 53.698429 -17.847841 -11.215630 4.892389 -16.601845 
0.482785 0.109392 1.002028 177.290282 0.176958 89.272221 -3.853299 -0.648876 6.648006 -3.442691 -13.177186 1.572677 -0.173412 14.772786 -21.394128 0.000000 -0.000000 0.000000 -3.162853 1.148433 -21.742163 3.967317 -7.232721 26.857335 12.053761 -10.418844 -4.211256 0.000000 -0.000000 0.000000 -2.379114 -7.054444 7.624704 11.410592 -16.603956 -4.857072 5.753488 -6.519791 -0.259214 -3.480216 29.532752 0.483972 -4.025056 8.832860 3.604094 7.061837 -26.850600 -9.716586 18.670922 -28.322410 -29.587409 8.813997 -16.827475 -44.110603 6.060486 -13.304262 -15.216533 18.779967 7.226699 -7.233448 35.995781 6.589932 20.817414 -28.253435 54.248058 -20.643167 -11.716815 4.361036 -17.182897 
0.486027 0.123162 0.999127 177.059025 -0.059311 89.004684 -3.870126 -0.717759 7.167142 -3.752866 -12.611164 3.122468 -0.508040 14.187957 -22.728610 0.000000 -0.000000 0.000000 -1.525674 1.605646 -17.821055 2.324266 -5.799503 22.886845 10.555931 -11.100501 -7.347453 0.000000 -0.000000 0.000000 -2.511870 -6.990943 6.779356 10.676755 -17.392786 -4.353042 5.522051 -6.759628 -0.119154 -4.342244 28.821026 0.528087 -3.394185 10.262191 3.605324 6.841762 -26.851238 -9.930357 15.726187 -31.610071 -28.718386 11.882966 -21.058071 -45.324705 10.321042 -11.462870 -17.611167 17.820103 6.259142 -7.569626 38.375395 5.594271 21.486740 -30.160073 55.403085 -21.895583 -11.038480 3.870623 -18.717111 
0.489090 0.136143 0.996025 176.213166 -0.059847 88.908065 -3.703452 -0.918025 7.028874 -4.446912 -11.719327 5.539354 -0.273333 14.151297 -24.100938 0.000000 -0.000000 0.000000 -0.565650 1.555202 -14.863149 1.824155 -5.025125 19.927260 9.775683 -11.004722 -9.973684 0.000000 -0.000000 0.000000 -1.902962 -7.161194 5.924422 9.641298 -17.324832 -4.246113 5.121987 -6.469828 0.152522 -5.340641 27.457468 0.478718 -2.654675 11.898707 3.816346 6.486651 -25.621048 -10.104986 9.875363 -35.304489 -26.388313 17.577064 -27.918445 -47.699618 13.316251 -8.241829 -21.245307 16.346550 4.799372 -7.406654 41.360020 4.311307 21.644896 -32.905569 57.192958 -24.011940 -9.923893 3.178962 -20.083158 
0.492612 0.148182 0.992894 174.928827 0.171607 89.049431 -3.263762 -1.559115 5.961652 -5.451308 -10.213584 9.295632 0.195535 13.866910 -25.447028 0.000000 -0.000000 0.000000 0.065297 1.374742 -12.664393 1.630999 -4.717772 17.991633 9.869956 -9.342616 -12.326633 0.000000 -0.000000 0.000000 -0.818409 -7.183903 4.769100 8.515284 -16.651171 -4.222515 4.607645 -5.917991 0.254612 -5.962244 25.615103 1.262988 -1.996810 13.791441 3.745231 5.106435 -23.652461 -10.003068 1.192427 -39.112137 -22.053201 26.187321 -36.530133 -49.921209 13.996643 -4.021663 -23.211987 14.989439 3.025794 -6.421679 44.176463 2.792783 20.806885 -36.234495 59.562934 -26.051203 -8.688880 2.787936 -20.609084 
0.496486 0.159054 0.989284 173.319960 0.297909 88.845222 -2.744969 -2.746317 4.176932 -7.059163 -8.331473 15.140340 0.763034 13.250101 -25.795329 0.000000 -0.000000 0.000000 0.470256 1.062277 -11.270988 1.839669 -3.976512 17.664105 9.347045 -8.151449 -14.738638 0.000000 -0.000000 0.000000 -0.076190 -6.697577 4.109237 7.550179 -15.658152 -4.102229 4.087518 -5.362686 0.222935 -6.249796 23.728255 1.972050 -1.387503 15.648629 3.932551 3.075153 -21.545309 -9.371072 -8.765987 -41.723128 -16.380379 36.320773 -44.661997 -52.270085 13.984259 -1.338325 -24.515911 13.962366 1.361028 -5.368262 46.825334 0.864558 19.667423 -40.198817 61.834214 -27.887311 -7.037596 2.653100 -20.366217 
